<?xml version="1.0" encoding="UTF-8"?>
<!DOCTYPE svg PUBLIC "-//W3C//DTD SVG 1.1//EN" "http://www.w3.org/Graphics/SVG/1.1/DTD/svg11.dtd">
<!-- Creator: CorelDRAW 2018 (64-Bit) -->
<svg xmlns="http://www.w3.org/2000/svg" xml:space="preserve" width="60mm" height="47mm" version="1.1" style="shape-rendering:geometricPrecision; text-rendering:geometricPrecision; image-rendering:optimizeQuality; fill-rule:evenodd; clip-rule:evenodd"
viewBox="0 0 57.12 44.75"
 xmlns:xlink="http://www.w3.org/1999/xlink">
 <defs>
  <style type="text/css">
   <![CDATA[
    .fil2 {fill:none}
    .fil0 {fill:#55ADAD}
    .fil1 {fill:#59656C}
   ]]>
  </style>
 </defs>
 <g id="Слой_x0020_1">
  <metadata id="CorelCorpID_0Corel-Layer"/>
  <g id="_1611138128">
   <g>
    <path class="fil0" d="M36.97 36.27l3.35 0 0 -3.35c0,-0.19 0.15,-0.34 0.34,-0.34l0 0c0.18,0 0.34,0.15 0.34,0.34l0 3.69 0 0 -0 0.01 -0 0.01 -0 0.01 -0 0.01 -0 0.01 -0 0.01 -0 0.01 -0 0.01 -0 0.01c-0,0.01 -0,0.01 -0,0.02l-0 0.01c-0,0.01 -0.01,0.02 -0.01,0.02l-0 0.01c-0,0.01 -0,0.01 -0.01,0.01 -0,0.01 -0.01,0.02 -0.02,0.03 -0.05,0.09 -0.14,0.15 -0.24,0.16l-0.01 0c-0.01,0 -0.01,0 -0.02,0l-0.01 0 -0.01 0 -3.69 0c-0.18,0 -0.34,-0.15 -0.34,-0.34l0 0c0,-0.19 0.15,-0.34 0.34,-0.34z"/>
    <path class="fil0" d="M36.97 8.48l3.35 0 0 3.35c0,0.19 0.15,0.34 0.34,0.34l0 0c0.18,0 0.34,-0.15 0.34,-0.34l0 -3.69 0 0 -0 -0.01 -0 -0.01 -0 -0.01 -0 -0.01 -0 -0.01 -0 -0.01 -0 -0.01 -0 -0.01 -0 -0.01c-0,-0.01 -0,-0.01 -0,-0.02l-0 -0.01c-0,-0.01 -0.01,-0.02 -0.01,-0.02l-0 -0.01c-0,-0.01 -0,-0.01 -0.01,-0.01 -0,-0.01 -0.01,-0.02 -0.02,-0.03 -0.05,-0.09 -0.14,-0.15 -0.24,-0.16l-0.01 -0c-0.01,-0 -0.01,-0 -0.02,-0l-0.01 -0 -0.01 -0 -3.69 0c-0.18,0 -0.34,0.15 -0.34,0.34l0 0c0,0.19 0.15,0.34 0.34,0.34z"/>
    <path class="fil0" d="M20.15 36.27l-3.35 0 0 -3.35c0,-0.19 -0.15,-0.34 -0.34,-0.34l0 0c-0.18,0 -0.34,0.15 -0.34,0.34l0 3.69 0 0 0 0.01 0 0.01 0 0.01 0 0.01 0 0.01 0 0.01 0 0.01 0 0.01 0 0.01c0,0.01 0,0.01 0,0.02l0 0.01c0,0.01 0.01,0.02 0.01,0.02l0 0.01c0,0.01 0,0.01 0.01,0.01 0,0.01 0.01,0.02 0.02,0.03 0.05,0.09 0.14,0.15 0.24,0.16l0.01 0c0.01,0 0.01,0 0.02,0l0.01 0 0.01 0 3.69 0c0.18,0 0.34,-0.15 0.34,-0.34l0 0c0,-0.19 -0.15,-0.34 -0.34,-0.34z"/>
    <path class="fil0" d="M20.15 8.48l-3.35 0 0 3.35c0,0.19 -0.15,0.34 -0.34,0.34l0 0c-0.18,0 -0.34,-0.15 -0.34,-0.34l0 -3.69 0 0 0 -0.01 0 -0.01 0 -0.01 0 -0.01 0 -0.01 0 -0.01 0 -0.01 0 -0.01 0 -0.01c0,-0.01 0,-0.01 0,-0.02l0 -0.01c0,-0.01 0.01,-0.02 0.01,-0.02l0 -0.01c0,-0.01 0,-0.01 0.01,-0.01 0,-0.01 0.01,-0.02 0.02,-0.03 0.05,-0.09 0.14,-0.15 0.24,-0.16l0.01 -0c0.01,-0 0.01,-0 0.02,-0l0.01 -0 0.01 -0 3.69 0c0.18,0 0.34,0.15 0.34,0.34l0 0c0,0.19 -0.15,0.34 -0.34,0.34z"/>
   </g>
   <path class="fil1" d="M10.56 22.16c0.15,-0.3 0.4,-0.59 0.62,-0.84 0.07,-0.08 0.13,-0.16 0.19,-0.23 0.82,-1.02 1.86,-2.08 2.98,-3.06 1.15,-1.01 2.37,-1.94 3.48,-2.63 3.48,-2.18 7.11,-3.27 10.74,-3.27 3.63,0 7.25,1.09 10.74,3.27 0.85,0.53 2.04,1.42 3.15,2.36 0.99,0.84 1.93,1.72 2.53,2.44 0.05,0.07 0.18,0.21 0.32,0.37 0.44,0.51 1.08,1.24 1.26,1.6l0.11 0.21 -0.11 0.21c-0.15,0.3 -0.4,0.59 -0.62,0.84 -0.07,0.08 -0.13,0.16 -0.19,0.23 -0.82,1.02 -1.86,2.08 -2.98,3.06 -1.15,1.01 -2.37,1.94 -3.48,2.63 -3.49,2.18 -7.11,3.27 -10.74,3.27 -3.63,0 -7.25,-1.09 -10.74,-3.27 -1.09,-0.68 -2.35,-1.64 -3.54,-2.69 -1.12,-0.99 -2.17,-2.06 -2.95,-3.05 -0.07,-0.09 -0.14,-0.17 -0.21,-0.26 -0.2,-0.23 -0.41,-0.47 -0.56,-0.77l-0.11 -0.21 0.11 -0.21zm17.27 -6.08l0.09 -0.01c1.81,-0.21 3.44,0.37 4.67,1.4 1.22,1.03 2.05,2.5 2.26,4.09l0 0c0,0.03 0.01,0.08 0.01,0.11 0.21,1.84 -0.38,3.49 -1.42,4.74 -1.03,1.24 -2.52,2.07 -4.09,2.25l-0.02 0c-1.81,0.2 -3.43,-0.33 -4.67,-1.31 -1.31,-1.04 -2.19,-2.57 -2.38,-4.26 -0.1,-0.9 0,-1.78 0.24,-2.57 0.27,-0.9 0.71,-1.68 1.22,-2.25 0.47,-0.53 1.01,-1.01 1.68,-1.4 0.67,-0.39 1.46,-0.67 2.43,-0.79l0 -0zm8.02 7.17c0.17,-0.94 0.06,-1.91 -0.2,-2.8 -0.33,-1.12 -0.89,-2.11 -1.44,-2.77 -0.24,-0.29 -0.49,-0.52 -0.75,-0.76l-0.2 -0.19c-0.14,-0.13 -0.3,-0.25 -0.47,-0.37 -0.16,-0.11 -0.37,-0.23 -0.58,-0.36 -1.28,-0.77 -2.81,-1.06 -4.29,-0.93 -1.54,0.13 -3,0.71 -4.04,1.64 -0.65,0.58 -1.21,1.19 -1.65,1.94 -0.44,0.75 -0.78,1.65 -0.96,2.83 -0.15,0.97 -0.03,1.99 0.24,2.92 0.32,1.09 0.84,2.04 1.39,2.66 0.57,0.63 1.18,1.2 1.94,1.66 0.75,0.45 1.66,0.78 2.81,0.95 1,0.15 2.02,0.03 2.95,-0.24 1.08,-0.31 2.02,-0.83 2.64,-1.38 0.68,-0.61 1.23,-1.2 1.66,-1.94 0.43,-0.74 0.74,-1.63 0.96,-2.85l-0 -0zm-26.36 -0.68c0.09,0.67 1.2,1.89 1.94,2.7 0.17,0.18 0.32,0.35 0.42,0.46 0.14,0.15 0.29,0.31 0.44,0.47 0.15,0.15 0.32,0.31 0.48,0.46 4.54,4.3 9.61,6.68 14.77,6.95 5.03,0.26 10.16,-1.48 15.02,-5.39 1.66,-1.34 2.28,-2.04 3.43,-3.33l0.44 -0.5c0.1,-0.12 0.02,-0.02 0.13,-0.14 0.45,-0.49 1.16,-1.28 1.06,-2.07 -0.04,-0.33 -0.4,-0.89 -0.88,-1.49 -0.79,-1.01 -1.86,-2.09 -2.41,-2.61 -4.54,-4.3 -9.61,-6.69 -14.77,-6.95 -5.03,-0.26 -10.16,1.48 -15.02,5.39 -0.36,0.29 -0.71,0.59 -1.05,0.89 -0.34,0.3 -0.66,0.61 -0.97,0.92 -0.14,0.14 -0.28,0.3 -0.43,0.45 -0.18,0.19 -0.36,0.39 -0.56,0.57 -0.19,0.19 -0.36,0.39 -0.52,0.59 -0.11,0.14 -0.23,0.28 -0.34,0.41l-0.12 0.14 -0 -0c-0.45,0.49 -1.17,1.29 -1.07,2.08z"/>
  </g>
  <rect class="fil2" x="-0" width="57.12" height="44.75"/>
 </g>
</svg>
