<?xml version="1.0" encoding="UTF-8"?>
<!DOCTYPE svg PUBLIC "-//W3C//DTD SVG 1.1//EN" "http://www.w3.org/Graphics/SVG/1.1/DTD/svg11.dtd">
<!-- Creator: CorelDRAW 2018 (64-Bit) -->
<svg xmlns="http://www.w3.org/2000/svg" xml:space="preserve" width="60mm" height="47mm" version="1.1" style="shape-rendering:geometricPrecision; text-rendering:geometricPrecision; image-rendering:optimizeQuality; fill-rule:evenodd; clip-rule:evenodd"
viewBox="0 0 59.79 46.84"
 xmlns:xlink="http://www.w3.org/1999/xlink">
 <defs>
  <style type="text/css">
   <![CDATA[
    .fil2 {fill:none}
    .fil0 {fill:#55ADAD}
    .fil1 {fill:#59656C}
   ]]>
  </style>
 </defs>
 <g id="Слой_x0020_1">
  <metadata id="CorelCorpID_0Corel-Layer"/>
  <g id="_1610965520">
   <g>
    <path class="fil0" d="M57.37 12.13l0 -3.51 -3.51 0c-0.19,0 -0.35,-0.16 -0.35,-0.35l0 0c0,-0.19 0.16,-0.35 0.35,-0.35l3.86 0 0 0 0.01 0 0.01 0 0.01 0 0.01 0 0.01 0 0.01 0 0.01 0 0.01 0 0.01 0c0.01,0 0.01,0 0.02,0l0.01 0c0.01,0 0.02,0.01 0.02,0.01l0.01 0c0.01,0 0.01,0 0.02,0.01 0.01,0 0.02,0.01 0.03,0.02 0.09,0.05 0.15,0.15 0.17,0.26l0 0.01c0,0.01 0,0.01 0,0.02l0 0.01 0 0.01 0 3.86c0,0.19 -0.16,0.35 -0.35,0.35l0 0c-0.19,0 -0.35,-0.16 -0.35,-0.35z"/>
    <path class="fil0" d="M28.29 12.13l0 -3.51 3.51 0c0.19,0 0.35,-0.16 0.35,-0.35l0 0c0,-0.19 -0.16,-0.35 -0.35,-0.35l-3.86 0 0 0 -0.01 0 -0.01 0 -0.01 0 -0.01 0 -0.01 0 -0.01 0 -0.01 0 -0.01 0 -0.01 0c-0.01,0 -0.01,0 -0.02,0l-0.01 0c-0.01,0 -0.02,0.01 -0.02,0.01l-0.01 0c-0.01,0 -0.01,0 -0.02,0.01 -0.01,0 -0.02,0.01 -0.03,0.02 -0.09,0.05 -0.15,0.15 -0.17,0.26l-0 0.01c-0,0.01 -0,0.01 -0,0.02l-0 0.01 -0 0.01 0 3.86c0,0.19 0.16,0.35 0.35,0.35l0 0c0.19,0 0.35,-0.16 0.35,-0.35z"/>
    <path class="fil0" d="M57.37 34.71l0 3.51 -3.51 0c-0.19,0 -0.35,0.16 -0.35,0.35l0 0c0,0.19 0.16,0.35 0.35,0.35l3.86 0 0 0 0.01 -0 0.01 -0 0.01 -0 0.01 -0 0.01 -0 0.01 -0 0.01 -0 0.01 -0 0.01 -0c0.01,-0 0.01,-0 0.02,-0l0.01 -0c0.01,-0 0.02,-0.01 0.02,-0.01l0.01 -0c0.01,-0 0.01,-0 0.02,-0.01 0.01,-0 0.02,-0.01 0.03,-0.02 0.09,-0.05 0.15,-0.15 0.17,-0.26l0 -0.01c0,-0.01 0,-0.01 0,-0.02l0 -0.01 0 -0.01 0 -3.86c0,-0.19 -0.16,-0.35 -0.35,-0.35l0 0c-0.19,0 -0.35,0.16 -0.35,0.35z"/>
    <path class="fil0" d="M28.29 34.71l0 3.51 3.51 0c0.19,0 0.35,0.16 0.35,0.35l0 0c0,0.19 -0.16,0.35 -0.35,0.35l-3.86 0 0 0 -0.01 -0 -0.01 -0 -0.01 -0 -0.01 -0 -0.01 -0 -0.01 -0 -0.01 -0 -0.01 -0 -0.01 -0c-0.01,-0 -0.01,-0 -0.02,-0l-0.01 -0c-0.01,-0 -0.02,-0.01 -0.02,-0.01l-0.01 -0c-0.01,-0 -0.01,-0 -0.02,-0.01 -0.01,-0 -0.02,-0.01 -0.03,-0.02 -0.09,-0.05 -0.15,-0.15 -0.17,-0.26l-0 -0.01c-0,-0.01 -0,-0.01 -0,-0.02l-0 -0.01 -0 -0.01 0 -3.86c0,-0.19 0.16,-0.35 0.35,-0.35l0 0c0.19,0 0.35,0.16 0.35,0.35z"/>
   </g>
   <path class="fil1" d="M13.89 33.17c-0.4,-1.72 -0.13,-4.22 0.6,-5.86 0.06,-0.14 0.12,-0.28 0.18,-0.41 0.07,-0.13 0.13,-0.26 0.2,-0.39 0.19,-0.38 0.69,-1.15 0.93,-1.45 0.07,-0.08 0.47,-0.59 0.55,-0.65 0.07,0.05 0.35,0.57 0.41,0.68 0.21,0.37 0.57,1.11 0.73,1.5 0.05,0.12 0.11,0.25 0.16,0.38 0.43,1.03 0.78,2.38 0.94,3.49 0.01,0.1 0.05,0.44 0.07,0.5 -0.08,0.02 -0.07,0.04 -0.13,0.09 -0.32,0.26 -0.52,0.4 -0.88,0.65 -0.98,0.65 -2.27,1.17 -3.41,1.4 -0.1,0.02 -0.27,0.06 -0.37,0.07zm-1.83 -20.46l0.69 0c0.42,0.01 0.84,0.05 1.25,0.11 0.39,0.05 0.72,0.13 1.08,0.21 0.91,0.23 1.95,0.65 2.74,1.12 0.28,0.17 0.52,0.31 0.78,0.5 0.13,0.1 0.25,0.18 0.38,0.28l0.44 0.37c0.04,0.03 0.04,0.03 0.08,0.07 0.03,0.03 0.05,0.06 0.09,0.09 0.33,0.28 0.76,0.74 1.04,1.06l0.56 0.73c0.19,0.25 0.34,0.51 0.5,0.79 0.68,1.13 1.14,2.52 1.33,3.83 0.06,0.39 0.09,0.8 0.1,1.21l0 0.7c-0.01,0.41 -0.05,0.82 -0.1,1.21 -0.06,0.39 -0.12,0.72 -0.21,1.08 -0.26,1.05 -0.77,2.26 -1.37,3.16 -0.25,0.37 -0.38,0.57 -0.67,0.94l-0.22 0.26c-0.03,0.03 -0.04,0.05 -0.07,0.08 -0.06,0.07 -0.08,0.11 -0.15,0.17 -0.07,0.07 -0.09,0.1 -0.15,0.17l-0.82 0.77c-0.46,0.36 -0.59,0.48 -1.11,0.83l-0.82 0.47c-0.53,0.27 -0.75,0.38 -1.33,0.59 -0.31,0.12 -0.65,0.21 -0.99,0.3 -1.17,0.29 -1.75,0.31 -2.94,0.31l-0 0c-1.66,0 -3.65,-0.59 -5.09,-1.45 -0.76,-0.46 -1.58,-1.07 -2.21,-1.7 -0.06,-0.07 -0.09,-0.11 -0.15,-0.18 -0.06,-0.06 -0.11,-0.1 -0.16,-0.16l-0.59 -0.72c-0.1,-0.13 -0.18,-0.25 -0.28,-0.38 -0.31,-0.42 -0.73,-1.17 -0.95,-1.65 -0.33,-0.72 -0.55,-1.4 -0.74,-2.21l-0.15 -0.83c-0.1,-0.69 -0.12,-0.89 -0.12,-1.36l0 -0.44c0,-0.42 0.05,-0.84 0.11,-1.21 0.11,-0.75 0.28,-1.36 0.51,-2.06 0.22,-0.65 0.71,-1.63 1.07,-2.16l1.06 -1.37c0.28,-0.33 0.74,-0.76 1.06,-1.04 0.06,-0.05 0.12,-0.09 0.18,-0.14 0.31,-0.25 0.6,-0.46 0.94,-0.68 0.47,-0.31 1.17,-0.67 1.7,-0.88 0.16,-0.06 0.31,-0.12 0.46,-0.18 1.02,-0.38 2.14,-0.58 3.26,-0.62zm5.02 11.06c0.04,-0.06 0.05,-0.06 0.11,-0.11 0.66,-0.53 0.78,-0.62 1.49,-1.05 0.73,-0.44 1.79,-0.86 2.65,-1.07 0.17,-0.04 0.63,-0.16 0.78,-0.16 0,0.11 0.15,0.71 0.15,1.42 0,1.15 0.02,1.76 -0.26,2.91 -0.27,1.12 -0.61,1.9 -1.18,2.86 -0.22,0.38 -0.7,1.05 -0.99,1.35 -0.09,0.09 -0.18,0.26 -0.3,0.29 0,-0.16 -0.04,-0.33 -0.07,-0.48 -0.19,-0.96 -0.24,-1.12 -0.49,-2l-0.21 -0.62c-0.05,-0.13 -0.1,-0.27 -0.16,-0.41 -0.26,-0.65 -0.55,-1.27 -0.89,-1.88l-0.63 -1.06zm-4.24 7.34c0,0.37 0.03,0.76 0.06,1.1l0.11 1.05c-1.04,0 -1.06,0.04 -2.12,-0.11 -0.93,-0.13 -1.73,-0.42 -2.57,-0.78 -0.13,-0.05 -0.25,-0.12 -0.37,-0.18 -0.58,-0.29 -1.56,-0.93 -1.99,-1.35 -0.54,-0.52 -0.89,-0.82 -1.35,-1.45 -0.69,-0.93 -1.16,-1.8 -1.54,-2.92 -0.05,-0.15 -0.23,-0.77 -0.23,-0.9 0.88,0 2.26,-0.35 3.04,-0.63 0.9,-0.32 1.65,-0.75 2.43,-1.27 0.1,-0.06 0.17,-0.13 0.26,-0.2l0.63 -0.5c0.05,-0.05 0.07,-0.07 0.13,-0.11 0.33,-0.25 1.06,-1.08 1.33,-1.45 0.34,-0.45 0.44,-0.62 0.73,-1.1l0.17 -0.29c0.04,-0.08 0.13,-0.25 0.15,-0.33 0.22,0.05 1.53,1.14 1.74,1.32l0.54 0.49c0.18,0.18 0.34,0.34 0.51,0.51l0.96 1.09c0.08,0.1 0.14,0.19 0.22,0.28 0.08,0.1 0.15,0.2 0.22,0.3 -0.11,0.08 -0.51,0.55 -0.63,0.68 -0.25,0.28 -0.35,0.46 -0.57,0.74 -0.32,0.43 -0.73,1.2 -0.95,1.68 -0.52,1.17 -0.94,2.64 -0.94,4.33zm-10.1 -6.43c-0.2,-0.86 -0.15,-0.58 -0.15,-1.55 0,-0.96 0.2,-1.82 0.45,-2.68 0.11,-0.38 0.29,-0.77 0.43,-1.12 0.05,-0.12 0.11,-0.24 0.17,-0.35 0.18,-0.36 0.54,-0.96 0.79,-1.31 0.08,-0.11 0.14,-0.19 0.23,-0.3 0.05,-0.06 0.21,-0.24 0.23,-0.3l0.87 0.13c0.29,0.05 0.58,0.11 0.86,0.17 0.8,0.17 2.29,0.65 3.07,1.04 0.38,0.19 0.62,0.29 1.01,0.52 0.12,0.07 0.22,0.13 0.33,0.19 -0.02,0.09 -0.22,0.46 -0.29,0.57 -0.2,0.35 -0.45,0.71 -0.69,1.04 -0.07,0.09 -0.12,0.16 -0.19,0.25l-0.61 0.68c-0.02,0.02 -0.03,0.03 -0.05,0.06l-0.02 0.02c-0.2,0.21 -0.61,0.58 -0.83,0.75 -1.4,1.1 -3.03,1.86 -4.82,2.11 -0.23,0.03 -0.52,0.08 -0.79,0.08zm8.57 -6.34l-0.61 -0.35c-0.77,-0.4 -1.19,-0.58 -2,-0.89l-0.72 -0.24c-0.58,-0.2 -1.3,-0.36 -1.92,-0.49 -0.12,-0.03 -0.3,-0.07 -0.44,-0.07 0.05,-0.18 1.03,-0.88 1.23,-1.02 0.23,-0.15 0.45,-0.3 0.69,-0.42 0.56,-0.29 0.88,-0.48 1.54,-0.71 0.29,-0.1 0.56,-0.19 0.87,-0.27 0.51,-0.13 1.4,-0.31 1.94,-0.31 0.2,0.85 0.05,2.39 -0.12,3.16 -0.1,0.46 -0.19,0.78 -0.33,1.22 -0.04,0.13 -0.1,0.26 -0.13,0.39zm1.46 -4.76c0.47,0 0.94,0.07 1.35,0.14 0.42,0.08 0.82,0.18 1.19,0.29 1.28,0.39 2.36,1.02 3.37,1.84 0.35,0.29 0.63,0.59 0.95,0.9 0.07,0.07 0.1,0.12 0.17,0.2 0.04,0.04 0.04,0.05 0.08,0.09l0.26 0.31c0.12,0.14 0.21,0.28 0.32,0.43 0.32,0.43 0.46,0.74 0.7,1.16 0.06,0.1 0.08,0.13 0.13,0.25l0.53 1.33c0.01,0.1 -0.04,0.07 -0.25,0.11 -0.41,0.08 -0.83,0.17 -1.19,0.29 -0.1,0.03 -0.18,0.06 -0.28,0.09 -0.1,0.03 -0.17,0.06 -0.28,0.1 -0.1,0.03 -0.17,0.07 -0.27,0.1 -0.6,0.24 -1.18,0.53 -1.73,0.88l-0.87 0.62c-0.15,0.12 -0.27,0.24 -0.42,0.34l-0.23 -0.3c-0.04,-0.05 -0.07,-0.09 -0.12,-0.14l-0.61 -0.74c-0.17,-0.19 -0.35,-0.36 -0.52,-0.55 -0.09,-0.1 -0.12,-0.16 -0.26,-0.28 -0.06,-0.05 -0.08,-0.06 -0.14,-0.12l-0.99 -0.89c-0.11,-0.09 -0.2,-0.16 -0.3,-0.24 -0.1,-0.08 -0.19,-0.15 -0.3,-0.23 -0.2,-0.15 -0.77,-0.57 -0.96,-0.67l0.3 -0.86c0.39,-1.39 0.46,-2.02 0.46,-3.54 0,-0.21 -0.03,-0.77 -0.09,-0.9z"/>
   <path class="fil1" d="M32.66 18.21l9.24 3.33 0 12.59c-3.19,-1.15 -6.38,-2.3 -9.57,-3.45l0 -12.59 0.33 0.12zm9.94 15.48l0 -12.18c3.19,-1.54 6.38,-3.08 9.57,-4.62l0 12.57 -9.57 4.62 0 -0.4zm-0.43 -12.8l-9.33 -3.32c3.15,-1.66 6.3,-3.31 9.45,-4.97 3.12,1.27 6.25,2.53 9.38,3.8 -3.13,1.51 -6.26,3.02 -9.4,4.53l-0.1 -0.03zm-10.54 -3.37l0 13.4c0,0.29 0.72,0.51 1.29,0.69 0.1,0.03 0.2,0.06 0.31,0.1l7.64 2.78c0.36,0.12 0.61,0.22 0.81,0.29 0.3,0.12 0.46,0.18 0.58,0.17 0.13,-0.01 0.3,-0.09 0.64,-0.27 0.15,-0.08 0.34,-0.18 0.65,-0.32l8.97 -4.34c0.17,-0.08 0.35,-0.17 0.35,-0.34l0 -13.4c0,-0.22 -0.4,-0.36 -0.74,-0.48 -0.09,-0.03 -0.17,-0.06 -0.24,-0.09l-9.68 -3.82c-0.03,0.01 -0.09,0.03 -0.15,0.05 -0.12,0.05 -0.26,0.11 -0.41,0.19l-8.96 4.69c-0.08,0.04 -0.17,0.09 -0.28,0.13 -0.35,0.16 -0.79,0.36 -0.79,0.57z"/>
  </g>
  <rect class="fil2" x="-0" width="59.79" height="46.84"/>
 </g>
</svg>
