<?xml version="1.0" encoding="UTF-8"?>
<!DOCTYPE svg PUBLIC "-//W3C//DTD SVG 1.1//EN" "http://www.w3.org/Graphics/SVG/1.1/DTD/svg11.dtd">
<!-- Creator: CorelDRAW 2018 (64-Bit) -->
<svg xmlns="http://www.w3.org/2000/svg" xml:space="preserve" width="60mm" height="47mm" version="1.1" style="shape-rendering:geometricPrecision; text-rendering:geometricPrecision; image-rendering:optimizeQuality; fill-rule:evenodd; clip-rule:evenodd"
viewBox="0 0 57.12 44.75"
 xmlns:xlink="http://www.w3.org/1999/xlink">
 <defs>
  <style type="text/css">
   <![CDATA[
    .str0 {stroke:#59656C;stroke-width:0.95;stroke-miterlimit:22.9256}
    .fil0 {fill:none}
    .fil1 {fill:#55ADAD}
   ]]>
  </style>
 </defs>
 <g id="Слой_x0020_1">
  <metadata id="CorelCorpID_0Corel-Layer"/>
  <g id="_1610437968">
   <rect class="fil0 str0" x="11.61" y="5.42" width="33.9" height="33.9" rx="3.4" ry="3.4"/>
   <g>
    <path class="fil0 str0" d="M37.36 31.15c0,-5 0.5,-4.63 -4.5,-6.71 -0.53,-0.22 -1.74,-0.98 -2.23,-0.63 -1.05,0.73 -1.89,1.35 -3.6,0.37 -0.96,-0.55 -0.27,-0.93 -3.26,0.47 -3.92,1.83 -3.99,1.08 -4,5.61 -0,0.26 -0.02,0.57 -0.01,0.82 0.02,0.72 0.18,0.55 1.92,0.55l14.49 0c0.54,0 1.19,0.17 1.19,-0.47z"/>
    <ellipse class="fil0 str0" cx="28.56" cy="17.45" rx="4.32" ry="5"/>
   </g>
  </g>
  <g id="_1610468912">
   <path class="fil1" d="M32.76 22.61l3.35 0 0 -3.35c0,-0.19 0.15,-0.34 0.34,-0.34l0 0c0.18,0 0.34,0.15 0.34,0.34l0 3.69 0 0 -0 0.01 -0 0.01 -0 0.01 -0 0.01 -0 0.01 -0 0.01 -0 0.01 -0 0.01 -0 0.01c-0,0.01 -0,0.01 -0,0.02l-0 0.01c-0,0.01 -0.01,0.02 -0.01,0.02l-0 0.01c-0,0.01 -0,0.01 -0.01,0.01 -0,0.01 -0.01,0.02 -0.02,0.03 -0.05,0.09 -0.14,0.15 -0.24,0.16l-0.01 0c-0.01,0 -0.01,0 -0.02,0l-0.01 0 -0.01 0 -3.69 0c-0.18,0 -0.34,-0.15 -0.34,-0.34l0 0c0,-0.19 0.15,-0.34 0.34,-0.34z"/>
   <path class="fil1" d="M32.76 11.34l3.35 0 0 3.35c0,0.19 0.15,0.34 0.34,0.34l0 0c0.18,0 0.34,-0.15 0.34,-0.34l0 -3.69 0 0 -0 -0.01 -0 -0.01 -0 -0.01 -0 -0.01 -0 -0.01 -0 -0.01 -0 -0.01 -0 -0.01 -0 -0.01c-0,-0.01 -0,-0.01 -0,-0.02l-0 -0.01c-0,-0.01 -0.01,-0.02 -0.01,-0.02l-0 -0.01c-0,-0.01 -0,-0.01 -0.01,-0.01 -0,-0.01 -0.01,-0.02 -0.02,-0.03 -0.05,-0.09 -0.14,-0.15 -0.24,-0.16l-0.01 -0c-0.01,-0 -0.01,-0 -0.02,-0l-0.01 -0 -0.01 -0 -3.69 0c-0.18,0 -0.34,0.15 -0.34,0.34l0 0c0,0.19 0.15,0.34 0.34,0.34z"/>
   <g>
    <path class="fil1" d="M24.37 22.61l-3.35 0 0 -3.35c0,-0.19 -0.15,-0.34 -0.34,-0.34l0 0c-0.18,0 -0.34,0.15 -0.34,0.34l0 3.69 0 0 0 0.01 0 0.01 0 0.01 0 0.01 0 0.01 0 0.01 0 0.01 0 0.01 0 0.01c0,0.01 0,0.01 0,0.02l0 0.01c0,0.01 0.01,0.02 0.01,0.02l0 0.01c0,0.01 0,0.01 0.01,0.01 0,0.01 0.01,0.02 0.02,0.03 0.05,0.09 0.14,0.15 0.24,0.16l0.01 0c0.01,0 0.01,0 0.02,0l0.01 0 0.01 0 3.69 0c0.18,0 0.34,-0.15 0.34,-0.34l0 0c0,-0.19 -0.15,-0.34 -0.34,-0.34z"/>
    <path class="fil1" d="M24.37 11.34l-3.35 0 0 3.35c0,0.19 -0.15,0.34 -0.34,0.34l0 0c-0.18,0 -0.34,-0.15 -0.34,-0.34l0 -3.69 0 0 0 -0.01 0 -0.01 0 -0.01 0 -0.01 0 -0.01 0 -0.01 0 -0.01 0 -0.01 0 -0.01c0,-0.01 0,-0.01 0,-0.02l0 -0.01c0,-0.01 0.01,-0.02 0.01,-0.02l0 -0.01c0,-0.01 0,-0.01 0.01,-0.01 0,-0.01 0.01,-0.02 0.02,-0.03 0.05,-0.09 0.14,-0.15 0.24,-0.16l0.01 -0c0.01,-0 0.01,-0 0.02,-0l0.01 -0 0.01 -0 3.69 0c0.18,0 0.34,0.15 0.34,0.34l0 0c0,0.19 -0.15,0.34 -0.34,0.34z"/>
   </g>
  </g>
  <rect class="fil0" x="-0" width="57.12" height="44.75"/>
 </g>
</svg>
