<?xml version="1.0" encoding="UTF-8"?>
<!DOCTYPE svg PUBLIC "-//W3C//DTD SVG 1.1//EN" "http://www.w3.org/Graphics/SVG/1.1/DTD/svg11.dtd">
<!-- Creator: CorelDRAW 2018 (64-Bit) -->
<svg xmlns="http://www.w3.org/2000/svg" xml:space="preserve" width="60mm" height="60mm" version="1.1" style="shape-rendering:geometricPrecision; text-rendering:geometricPrecision; image-rendering:optimizeQuality; fill-rule:evenodd; clip-rule:evenodd"
viewBox="0 0 18.53 18.53"
 xmlns:xlink="http://www.w3.org/1999/xlink">
 <defs>
  <style type="text/css">
   <![CDATA[
    .str0 {stroke:#59656C;stroke-width:0.31;stroke-miterlimit:22.9256}
    .str1 {stroke:#59656C;stroke-width:0.06;stroke-miterlimit:22.9256}
    .fil0 {fill:none}
    .fil1 {fill:#59656C}
   ]]>
  </style>
 </defs>
 <g id="Слой_x0020_1">
  <metadata id="CorelCorpID_0Corel-Layer"/>
  <g id="_95474208">
   <path class="fil0 str0" d="M5.47 14.83l0 -10.64c0,-0.35 0.28,-0.64 0.61,-0.64l6.52 0c0.34,0 0.61,0.29 0.61,0.64l0 10.64"/>
   <g>
    <path class="fil1 str1" d="M11.12 11.4l0 -2.13c0,-0.19 -0.07,-0.34 -0.28,-0.34l-3.01 0c-0.08,0 -0.13,0.02 -0.17,0.06 -0.03,0.03 -0.09,0.09 -0.09,0.15l0 2.36c0,0.12 0.12,0.22 0.23,0.22l3.07 0c0.07,0 0.15,-0.05 0.18,-0.09 0.04,-0.06 0.06,-0.13 0.06,-0.23zm-0.52 -3.57c0,-0.16 -0.07,-0.36 -0.12,-0.47 -0.32,-0.63 -1.04,-0.88 -1.66,-0.6 -0.07,0.03 -0.13,0.07 -0.19,0.11 -0.12,0.08 -0.22,0.18 -0.31,0.3 -0.05,0.07 -0.08,0.12 -0.12,0.19 -0.06,0.12 -0.12,0.31 -0.12,0.49l0 0.83 2.52 0 0 -0.85zm0.26 0.04l0 0.8c0.29,0 0.51,0.24 0.51,0.47l0 2.34c0,0.27 -0.23,0.5 -0.53,0.5l-3.01 0c-0.3,0 -0.53,-0.24 -0.53,-0.48l0 -2.33c0,-0.2 0.12,-0.36 0.28,-0.44 0.1,-0.05 0.12,-0.05 0.23,-0.05l0 -0.78c0,-0.61 0.41,-1.17 0.9,-1.37 0.2,-0.08 0.39,-0.14 0.62,-0.14 0.54,0 0.99,0.28 1.25,0.64 0.16,0.23 0.29,0.53 0.29,0.85z"/>
    <path class="fil1 str1" d="M9.59 10.22c0,-0.38 -0.5,-0.34 -0.5,-0.02 0,0.1 0.05,0.19 0.12,0.21 0,0.06 -0.01,0.14 0.01,0.2 0.04,0.13 0.21,0.13 0.24,0 0.02,-0.06 0.01,-0.14 0.01,-0.2 0.06,-0.02 0.12,-0.11 0.12,-0.19zm0.26 -0.02c0,0.22 -0.12,0.31 -0.13,0.34 -0.01,0.05 0,0.09 -0.01,0.15 -0.12,0.36 -0.61,0.36 -0.73,0.01 -0.04,-0.11 0.02,-0.12 -0.04,-0.19 -0.01,-0.02 -0.02,-0.03 -0.04,-0.05 -0.26,-0.4 0.2,-0.94 0.67,-0.71 0.15,0.07 0.28,0.25 0.28,0.46z"/>
   </g>
   <rect class="fil1" x="3.67" y="14.68" width="11.2" height="0.31" rx="0.33" ry="0.15"/>
  </g>
  <rect class="fil0" x="-0" width="18.53" height="18.53"/>
 </g>
</svg>
