<?xml version="1.0" encoding="UTF-8"?>
<!DOCTYPE svg PUBLIC "-//W3C//DTD SVG 1.1//EN" "http://www.w3.org/Graphics/SVG/1.1/DTD/svg11.dtd">
<!-- Creator: CorelDRAW 2018 (64-Bit) -->
<svg xmlns="http://www.w3.org/2000/svg" xml:space="preserve" width="60mm" height="60mm" version="1.1" style="shape-rendering:geometricPrecision; text-rendering:geometricPrecision; image-rendering:optimizeQuality; fill-rule:evenodd; clip-rule:evenodd"
viewBox="0 0 14.17 14.17"
 xmlns:xlink="http://www.w3.org/1999/xlink">
 <defs>
  <style type="text/css">
   <![CDATA[
    .str0 {stroke:#59656C;stroke-width:0.24;stroke-miterlimit:22.9256}
    .fil0 {fill:none}
   ]]>
  </style>
 </defs>
 <g id="Слой_x0020_1">
  <metadata id="CorelCorpID_0Corel-Layer"/>
  <g id="_4611812192">
   <path class="fil0 str0" d="M9.23 11.88c0.1,0.32 0.45,0.34 0.58,0.09 0.17,-0.88 0.16,-2.08 -0.11,-2.6 -0.15,-0.31 -0.79,-1.31 -0.81,-1.53 -0.02,-0.28 0.13,-1.96 0.21,-2.12 0.38,0.23 0.66,0.66 1.02,0.86 0.14,0.07 1.82,0.41 1.77,-0.11 -0.03,-0.34 -0.97,-0.31 -1.68,-0.68 -0.43,-0.61 -0.77,-1.02 -0.95,-1.14 -0.27,-0.19 -1.57,-0.41 -1.95,-0.29 -0.71,0.23 -1.33,0.2 -1.69,0.68 -0.17,0.23 -0.33,0.44 -0.51,0.68 -0.2,0.29 -0.41,0.61 -0.21,0.8 0.35,0.34 1,-1 1.35,-1.14 0.07,-0.03 1.11,-0.24 1.31,-0.15 0.08,0.3 -0.09,1.16 -0.12,1.54 -0.05,0.61 -0.16,0.95 0.18,1.43 0.22,0.31 0.54,0.64 0.78,0.91 1.02,1.15 0.45,1.56 0.81,2.76z"/>
   <path class="fil0 str0" d="M8.28 9.82c-0.1,-0.19 -0.46,-0.69 -0.64,-0.81 -0.23,0.21 -0.41,0.56 -0.58,0.84 -0.31,0.49 -0.53,0.68 -1.02,1.12 -0.19,0.17 -0.72,0.43 -0.53,0.82 0.27,0.55 0.81,-0.09 1.48,-0.54 0.68,-0.46 0.84,-0.6 1.23,-1.29 0.05,-0.09 0.02,-0.03 0.07,-0.14z"/>
   <circle class="fil0 str0" cx="8.83" cy="3.02" r="0.99"/>
   <line class="fil0 str0" x1="5.09" y1="7.07" x2="4.69" y2= "8.34" />
   <circle class="fil0 str0" cx="3.75" cy="11.34" r="0.46"/>
   <path class="fil0 str0" d="M3.62 7.93l1.1 0.33 -0.84 2.64c-0.04,-0.01 -0.08,-0.02 -0.13,-0.02 -0.18,0 -0.33,0.1 -0.41,0.25l-0.63 -0.19c-0.33,-0.1 -0.52,-0.45 -0.42,-0.78l0.54 -1.81c0.1,-0.33 0.45,-0.52 0.78,-0.42z"/>
  </g>
  <rect class="fil0" x="-0" width="14.17" height="14.17"/>
 </g>
</svg>
