<?xml version="1.0" encoding="UTF-8"?>
<!DOCTYPE svg PUBLIC "-//W3C//DTD SVG 1.1//EN" "http://www.w3.org/Graphics/SVG/1.1/DTD/svg11.dtd">
<!-- Creator: CorelDRAW 2018 (64-Bit) -->
<svg xmlns="http://www.w3.org/2000/svg" xml:space="preserve" width="60mm" height="60mm" version="1.1" style="shape-rendering:geometricPrecision; text-rendering:geometricPrecision; image-rendering:optimizeQuality; fill-rule:evenodd; clip-rule:evenodd"
viewBox="0 0 23.81 23.81"
 xmlns:xlink="http://www.w3.org/1999/xlink">
 <defs>
  <style type="text/css">
   <![CDATA[
    .str0 {stroke:#59656C;stroke-width:0.4;stroke-miterlimit:22.9256}
    .fil0 {fill:none}
   ]]>
  </style>
 </defs>
 <g id="Слой_x0020_1">
  <metadata id="CorelCorpID_0Corel-Layer"/>
  <rect class="fil0" x="-0" width="23.81" height="23.81"/>
  <g id="_1530578816">
   <g>
    <path class="fil0 str0" d="M10.25 12.03l-0.02 0.36 -0.27 6.27c-0.19,0.02 -0.4,-0.05 -0.57,-0.27 -0.15,-0.19 -0.51,-2.88 -0.7,-4.32 0.17,0.2 0.47,0.31 0.78,0.06l0.52 -1.8c0.16,-0.54 0.22,-1.26 0.25,-0.29zm-1.65 1.35l-0 -0.01 -0.83 5.04c-0.35,0.46 -1.05,0.26 -1.12,-0.34l0.3 -7.17c0.03,-0.41 -0.03,-0.32 -0.1,0l-0.68 2.36c-0.47,0.38 -0.91,-0.05 -0.91,-0.4 0,-0.33 0.64,-4.29 0.73,-4.76 0.07,-0.36 0.16,-0.53 0.4,-0.72 0.28,-0.22 0.92,-0.48 1.3,-0.57 0.41,0.48 1.5,0.42 1.84,0 0.41,0.1 0.83,0.31 1.18,0.51 0.14,0.08 0.24,0.17 0.32,0.28 0.21,0.3 0.11,0.23 -0.03,0.07 -0.37,0.09 -1.02,0.35 -1.3,0.57 -0.24,0.19 -0.33,0.36 -0.4,0.72 -0.08,0.4 -0.56,3.38 -0.7,4.42z"/>
    <path class="fil0 str0" d="M9.99 4.84c0,0.43 -0.17,0.78 -0.38,1.01 -0.72,0.8 -2.4,0.46 -2.4,-1.01 0,-0.93 1.02,-1.67 2,-1.21 0.09,0.04 0.31,0.19 0.38,0.27 0.18,0.18 0.41,0.59 0.41,0.94z"/>
   </g>
   <g>
    <path class="fil0 str0" d="M13.54 12.3c0,0.18 0.01,0.37 0.02,0.55l-0.28 6.67c-0.19,0.02 -0.39,-0.05 -0.57,-0.27 -0.16,-0.19 -0.52,-2.99 -0.71,-4.4 0.16,0.21 0.47,0.33 0.79,0.07l0.68 -2.36c0.03,-0.12 0.05,-0.21 0.07,-0.25zm-1.66 2.04l-0.81 4.92c-0.35,0.46 -1.05,0.26 -1.12,-0.34l0.3 -7.04c0.02,-0.39 -0.02,-0.4 -0.13,-0.02l-0.65 2.26c-0.47,0.38 -0.91,-0.05 -0.91,-0.4 0,-0.33 0.64,-4.29 0.73,-4.76 0.07,-0.36 0.16,-0.53 0.4,-0.72 0.28,-0.22 0.92,-0.48 1.3,-0.57 0.41,0.48 1.5,0.42 1.84,0 0.41,0.1 0.83,0.31 1.18,0.51 0.12,0.07 0.21,0.14 0.28,0.23 0.06,0.07 0.14,0.21 0.01,0.05 -0.37,0.09 -1.02,0.35 -1.3,0.57 -0.24,0.19 -0.33,0.36 -0.4,0.72 -0.08,0.42 -0.62,3.75 -0.72,4.59z"/>
    <path class="fil0 str0" d="M13.3 5.71c0,0.43 -0.17,0.78 -0.38,1.01 -0.72,0.8 -2.4,0.46 -2.4,-1.01 0,-0.93 1.02,-1.67 2,-1.21 0.09,0.04 0.31,0.19 0.38,0.27 0.18,0.18 0.41,0.59 0.41,0.94z"/>
   </g>
   <g>
    <path class="fil0 str0" d="M18.56 14.56c0,0.46 -0.87,0.83 -1.11,0.04l-0.46 -1.86c-0.19,-0.76 -0.17,-0.82 -0.15,0.01 0.04,2.33 0.27,4.69 0.27,7.02 0,0.42 -0.65,0.83 -1.1,0.27 -0.18,-0.23 -0.66,-4.1 -0.8,-5.02l-0.83 5.04c-0.35,0.46 -1.05,0.26 -1.12,-0.34l0.3 -7.17c0.03,-0.41 -0.03,-0.32 -0.1,0l-0.68 2.36c-0.47,0.38 -0.91,-0.05 -0.91,-0.4 0,-0.33 0.64,-4.29 0.73,-4.76 0.07,-0.36 0.16,-0.53 0.4,-0.72 0.28,-0.22 0.92,-0.48 1.3,-0.57 0.41,0.48 1.5,0.42 1.84,0 0.41,0.1 0.83,0.31 1.18,0.51 0.51,0.29 0.48,0.68 0.65,1.71 0.06,0.38 0.59,3.55 0.59,3.88z"/>
    <path class="fil0 str0" d="M16.61 6.5c0,0.43 -0.17,0.78 -0.38,1.01 -0.72,0.8 -2.4,0.46 -2.4,-1.01 0,-0.93 1.02,-1.67 2,-1.21 0.09,0.04 0.31,0.19 0.38,0.27 0.18,0.18 0.41,0.59 0.41,0.94z"/>
   </g>
  </g>
 </g>
</svg>
