<?xml version="1.0" encoding="UTF-8"?>
<!DOCTYPE svg PUBLIC "-//W3C//DTD SVG 1.1//EN" "http://www.w3.org/Graphics/SVG/1.1/DTD/svg11.dtd">
<!-- Creator: CorelDRAW 2018 (64-Bit) -->
<svg xmlns="http://www.w3.org/2000/svg" xml:space="preserve" width="60mm" height="47mm" version="1.1" style="shape-rendering:geometricPrecision; text-rendering:geometricPrecision; image-rendering:optimizeQuality; fill-rule:evenodd; clip-rule:evenodd"
viewBox="0 0 57.12 44.74"
 xmlns:xlink="http://www.w3.org/1999/xlink">
 <defs>
  <style type="text/css">
   <![CDATA[
    .str0 {stroke:#59656C;stroke-width:0.95;stroke-miterlimit:22.9256}
    .fil0 {fill:none}
    .fil1 {fill:#55ADAD}
   ]]>
  </style>
 </defs>
 <g id="Слой_x0020_1">
  <metadata id="CorelCorpID_0Corel-Layer"/>
  <g id="_1610477072">
   <rect class="fil0 str0" x="11.61" y="5.42" width="33.9" height="33.9" rx="3.4" ry="3.4"/>
   <g>
    <path class="fil0 str0" d="M19.86 17.92c-0.25,-0.44 -0.46,-0.67 -1.13,-0.66 -0.46,0.01 -1.09,0.07 -1.39,0.34 -0.31,0.28 -0.37,0.9 -0.04,1.21 0.17,0.16 0.89,0.48 1.19,0.55 -0.11,0.16 -0.14,0.12 -0.32,0.31 -1.43,1.53 -1.43,2.96 -0.93,5.11 0.17,0.74 0.45,1.17 0.45,1.93 -0.01,1.76 -0.23,2.83 1.96,2.83 0.66,-0 1.72,0.13 2.23,-0.22 0.78,-0.54 0.58,-1.31 0.68,-1.7 0.79,-0.05 2.13,0.05 2.97,0.08l6.07 0c0.84,-0.04 2.17,-0.13 2.97,-0.08 0.1,0.43 -0.09,1.2 0.71,1.73 0.5,0.33 2.91,0.26 3.35,0.07 1.03,-0.46 0.81,-1.74 0.81,-2.7 -0,-0.79 0.28,-1.22 0.46,-1.99 0.94,-4.12 -0.83,-4.71 -1.25,-5.37 0.33,-0.08 1.05,-0.39 1.22,-0.58 0.32,-0.35 0.27,-0.94 -0.1,-1.22 -0.28,-0.21 -1.02,-0.31 -1.42,-0.31 -0.64,0 -0.83,0.24 -1.07,0.66 -0.35,-0.56 -0.71,-1.61 -1.01,-2.29 -0.33,-0.73 -0.95,-1.45 -1.59,-1.75 -1.82,-0.84 -10.66,-0.81 -12.2,0 -1.74,0.93 -1.72,2.55 -2.61,4.04zm18.17 5.21c0.14,-0.52 0.04,-1.03 -0.27,-1.34 -0.64,-0.66 -3.62,0.53 -3.85,0.82 -0.28,0.35 -0.12,1.05 0.12,1.3 0.33,0.34 0.97,0.24 1.52,0.24 1.23,-0 2.15,0.2 2.47,-1.02zm-18.96 -0.12c0.34,1.28 1.02,1.14 2.31,1.14 0.48,0 1.24,0.1 1.6,-0.17 0.29,-0.22 0.53,-0.81 0.3,-1.27 -0.26,-0.51 -3.23,-1.45 -3.82,-1.02 -0.31,0.23 -0.53,0.77 -0.39,1.31zm2.15 -4.1c1.33,-0.03 2.67,-0.17 4.02,-0.21 2.3,-0.06 4.34,-0 6.62,0.01 1.35,0.01 2.68,0.15 4.02,0.19 -0.43,-1.49 -0.98,-2.89 -2.34,-3.64 -1.3,-0.72 -8.59,-0.73 -9.99,-0 -1.36,0.7 -1.9,2.22 -2.34,3.65z"/>
    <g>
     <path class="fil1" d="M37.79 33.27l3.35 0 0 -3.35c0,-0.19 0.15,-0.34 0.34,-0.34l0 0c0.18,0 0.34,0.15 0.34,0.34l0 3.69 0 0 -0 0.01 -0 0.01 -0 0.01 -0 0.01 -0 0.01 -0 0.01 -0 0.01 -0 0.01 -0 0.01c-0,0.01 -0,0.01 -0,0.02l-0 0.01c-0,0.01 -0.01,0.02 -0.01,0.02l-0 0.01c-0,0.01 -0,0.01 -0.01,0.01 -0,0.01 -0.01,0.02 -0.02,0.03 -0.05,0.09 -0.14,0.15 -0.24,0.16l-0.01 0c-0.01,0 -0.01,0 -0.02,0l-0.01 0 -0.01 0 -3.69 0c-0.18,0 -0.34,-0.15 -0.34,-0.34l0 0c0,-0.19 0.15,-0.34 0.34,-0.34z"/>
     <path class="fil1" d="M37.79 11.47l3.35 0 0 3.35c0,0.19 0.15,0.34 0.34,0.34l0 0c0.18,0 0.34,-0.15 0.34,-0.34l0 -3.69 0 0 -0 -0.01 -0 -0.01 -0 -0.01 -0 -0.01 -0 -0.01 -0 -0.01 -0 -0.01 -0 -0.01 -0 -0.01c-0,-0.01 -0,-0.01 -0,-0.02l-0 -0.01c-0,-0.01 -0.01,-0.02 -0.01,-0.02l-0 -0.01c-0,-0.01 -0,-0.01 -0.01,-0.01 -0,-0.01 -0.01,-0.02 -0.02,-0.03 -0.05,-0.09 -0.14,-0.15 -0.24,-0.16l-0.01 -0c-0.01,-0 -0.01,-0 -0.02,-0l-0.01 -0 -0.01 -0 -3.69 0c-0.18,0 -0.34,0.15 -0.34,0.34l0 0c0,0.19 0.15,0.34 0.34,0.34z"/>
     <path class="fil1" d="M19.33 33.27l-3.35 0 0 -3.35c0,-0.19 -0.15,-0.34 -0.34,-0.34l0 0c-0.18,0 -0.34,0.15 -0.34,0.34l0 3.69 0 0 0 0.01 0 0.01 0 0.01 0 0.01 0 0.01 0 0.01 0 0.01 0 0.01 0 0.01c0,0.01 0,0.01 0,0.02l0 0.01c0,0.01 0.01,0.02 0.01,0.02l0 0.01c0,0.01 0,0.01 0.01,0.01 0,0.01 0.01,0.02 0.02,0.03 0.05,0.09 0.14,0.15 0.24,0.16l0.01 0c0.01,0 0.01,0 0.02,0l0.01 0 0.01 0 3.69 0c0.18,0 0.34,-0.15 0.34,-0.34l0 0c0,-0.19 -0.15,-0.34 -0.34,-0.34z"/>
     <path class="fil1" d="M19.33 11.47l-3.35 0 0 3.35c0,0.19 -0.15,0.34 -0.34,0.34l0 0c-0.18,0 -0.34,-0.15 -0.34,-0.34l0 -3.69 0 0 0 -0.01 0 -0.01 0 -0.01 0 -0.01 0 -0.01 0 -0.01 0 -0.01 0 -0.01 0 -0.01c0,-0.01 0,-0.01 0,-0.02l0 -0.01c0,-0.01 0.01,-0.02 0.01,-0.02l0 -0.01c0,-0.01 0,-0.01 0.01,-0.01 0,-0.01 0.01,-0.02 0.02,-0.03 0.05,-0.09 0.14,-0.15 0.24,-0.16l0.01 -0c0.01,-0 0.01,-0 0.02,-0l0.01 -0 0.01 -0 3.69 0c0.18,0 0.34,0.15 0.34,0.34l0 0c0,0.19 -0.15,0.34 -0.34,0.34z"/>
    </g>
   </g>
  </g>
  <rect class="fil0" x="-0" width="57.12" height="44.74"/>
 </g>
</svg>
