<?xml version="1.0" encoding="UTF-8"?>
<!DOCTYPE svg PUBLIC "-//W3C//DTD SVG 1.1//EN" "http://www.w3.org/Graphics/SVG/1.1/DTD/svg11.dtd">
<!-- Creator: CorelDRAW 2018 (64-Bit) -->
<svg xmlns="http://www.w3.org/2000/svg" xml:space="preserve" width="60mm" height="47mm" version="1.1" style="shape-rendering:geometricPrecision; text-rendering:geometricPrecision; image-rendering:optimizeQuality; fill-rule:evenodd; clip-rule:evenodd"
viewBox="0 0 59.8 46.84"
 xmlns:xlink="http://www.w3.org/1999/xlink">
 <defs>
  <style type="text/css">
   <![CDATA[
    .str1 {stroke:#55ADAD;stroke-width:1;stroke-miterlimit:22.9256}
    .str0 {stroke:#59656C;stroke-width:1;stroke-miterlimit:22.9256}
    .fil0 {fill:none}
    .fil1 {fill:#55ADAD}
   ]]>
  </style>
 </defs>
 <g id="Слой_x0020_1">
  <metadata id="CorelCorpID_0Corel-Layer"/>
  <path class="fil0 str0" d="M16.74 18.13c-0.38,-0.67 -0.7,-1.02 -1.71,-1 -0.7,0.01 -1.65,0.11 -2.11,0.51 -0.48,0.42 -0.56,1.35 -0.06,1.83 0.26,0.25 1.35,0.72 1.8,0.83 -0.17,0.24 -0.22,0.19 -0.48,0.47 -2.16,2.32 -2.16,4.48 -1.4,7.73 0.26,1.11 0.68,1.77 0.67,2.93 -0.02,2.66 -0.35,4.29 2.97,4.28 1,-0 2.6,0.19 3.38,-0.34 1.19,-0.81 0.88,-1.98 1.02,-2.57 1.04,-0.07 2.73,0.04 3.98,0.1 -0.43,-0.98 -0.67,-2.06 -0.67,-3.19 0,-4.36 3.54,-7.9 7.9,-7.9 2.59,0 4.88,1.24 6.32,3.16 1.16,-0.63 4.63,-1.85 5.46,-0.99 0.46,0.48 0.62,1.24 0.4,2.03 -0.5,1.85 -1.89,1.54 -3.74,1.54 -0.27,0 -0.56,0.02 -0.84,0.02 0.19,0.68 0.29,1.4 0.29,2.14 0,1.32 -0.32,2.56 -0.89,3.65 0.04,0.64 0.09,1.45 1.02,2.06 0.76,0.49 4.41,0.4 5.07,0.1 1.56,-0.69 1.23,-2.63 1.22,-4.09 -0.01,-1.2 0.43,-1.84 0.69,-3 1.42,-6.24 -1.25,-7.13 -1.9,-8.12 0.5,-0.12 1.59,-0.58 1.85,-0.87 0.48,-0.53 0.4,-1.42 -0.16,-1.84 -0.42,-0.31 -1.55,-0.47 -2.15,-0.47 -0.96,0 -1.25,0.36 -1.61,1 -0.52,-0.84 -1.07,-2.43 -1.53,-3.46 -0.49,-1.1 -1.43,-2.2 -2.41,-2.65 -2.75,-1.28 -16.13,-1.23 -18.45,0.01 -2.63,1.4 -2.6,3.86 -3.95,6.11zm-1.18 7.69c0.51,1.94 1.54,1.73 3.5,1.73 0.73,0 1.88,0.16 2.42,-0.25 0.44,-0.34 0.8,-1.23 0.45,-1.92 -0.39,-0.78 -4.88,-2.2 -5.78,-1.54 -0.47,0.35 -0.8,1.16 -0.59,1.98zm3.26 -6.2c2.02,-0.05 4.04,-0.26 6.09,-0.31 3.48,-0.1 6.56,-0.01 10.02,0.02 2.04,0.01 4.05,0.23 6.08,0.28 -0.64,-2.25 -1.48,-4.37 -3.53,-5.51 -1.97,-1.09 -12.99,-1.1 -15.11,-0 -2.05,1.06 -2.88,3.36 -3.54,5.52z"/>
  <rect class="fil0" x="-0" width="59.8" height="46.84"/>
  <g id="_1610443024">
   <circle class="fil0 str1" cx="32.04" cy="29.71" r="7.9"/>
   <path class="fil1" d="M44.05 41.08l-6.12 -6.12c-0.19,0.2 -0.39,0.39 -0.59,0.58l6.12 6.12c0.1,0.1 0.31,0.05 0.47,-0.11l0 0c0.16,-0.16 0.21,-0.37 0.11,-0.47z"/>
  </g>
 </g>
</svg>
