<?xml version="1.0" encoding="UTF-8"?>
<!DOCTYPE svg PUBLIC "-//W3C//DTD SVG 1.1//EN" "http://www.w3.org/Graphics/SVG/1.1/DTD/svg11.dtd">
<!-- Creator: CorelDRAW 2018 (64-Bit) -->
<svg xmlns="http://www.w3.org/2000/svg" xml:space="preserve" width="16.0001mm" height="8.7476mm" version="1.1" style="shape-rendering:geometricPrecision; text-rendering:geometricPrecision; image-rendering:optimizeQuality; fill-rule:evenodd; clip-rule:evenodd"
viewBox="0 0 163.27 89.26"
 xmlns:xlink="http://www.w3.org/1999/xlink">
 <defs>
  <style type="text/css">
   <![CDATA[
    .fil0 {fill:#79848A;fill-opacity:0.321569}
   ]]>
  </style>
 </defs>
 <g id="Слой_x0020_1">
  <metadata id="CorelCorpID_0Corel-Layer"/>
  <path class="fil0" d="M-0 7.94c0,-7.07 7.97,-10.95 13.79,-5.07l8.74 8.7c2.59,2.57 5.03,5.37 7.74,7.82l25.35 25.33c0.01,0.01 0.33,0.3 0.37,0.34 3.37,3.06 6.44,6.46 9.68,9.65l1.86 1.92c2.75,2.75 5.39,5.61 8.27,8.23 0.39,0.36 0.35,0.32 0.72,0.69l2.5 2.44c0.89,0.89 1.86,1.64 2.53,2.65 1.44,-0.97 10.34,-10.15 12.59,-12.4l37.47 -37.49c0.04,-0.03 0.09,-0.08 0.13,-0.11 0.04,-0.03 0.09,-0.08 0.13,-0.11 0.04,-0.03 0.09,-0.08 0.13,-0.11l15.15 -15.26c3.38,-3.37 5.89,-6.37 10.93,-4.69 4.47,1.49 6.73,7.04 4.03,11.17 -1.16,1.78 -15.84,16.2 -17.61,17.98l-4.38 4.35c-0.39,0.35 -0.36,0.32 -0.72,0.69 -0.03,0.03 -0.08,0.08 -0.12,0.12l-33.11 33.12c-0.03,0.03 -0.08,0.08 -0.12,0.12l-1.07 1.06c-0.28,0.27 -0.35,0.35 -0.59,0.59l-0.24 0.24c-0.03,0.03 -0.08,0.08 -0.12,0.12 -0.2,0.2 -0.18,0.18 -0.36,0.35l-1.41 1.42c-3.81,3.63 -7.68,7.28 -11.22,11.18l-0.45 0.49c-2.48,2.53 -4.86,5.8 -8.81,5.8 -1.46,0 -2.94,-0.45 -3.92,-1.03l-1.49 -1.11c-0.21,-0.21 -0.31,-0.33 -0.58,-0.6l-9.2 -9.19c-0.21,-0.21 -0.13,-0.15 -0.35,-0.36l-2.63 -2.56c-2.28,-2.08 -4.58,-4.26 -6.62,-6.58l-3.46 -3.62c-5.39,-5.63 -11.29,-10.7 -16.57,-16.43 -0.03,-0.04 -0.08,-0.09 -0.11,-0.12 -0.49,-0.52 -0.85,-0.83 -1.29,-1.3l-9.79 -9.78c-2.93,-2.75 -6.02,-5.51 -8.61,-8.6 -0.21,-0.25 -0.39,-0.48 -0.65,-0.77 -4.04,-4.4 -8.59,-8.44 -12.78,-12.67 -1.63,-1.65 -3.77,-3.31 -3.77,-6.6z"/>
 </g>
</svg>
