<?xml version="1.0" encoding="UTF-8"?>
<!DOCTYPE svg PUBLIC "-//W3C//DTD SVG 1.1//EN" "http://www.w3.org/Graphics/SVG/1.1/DTD/svg11.dtd">
<!-- Creator: CorelDRAW 2018 (64-Bit) -->
<svg xmlns="http://www.w3.org/2000/svg" xml:space="preserve" width="79.0723mm" height="24.9642mm" version="1.1" style="shape-rendering:geometricPrecision; text-rendering:geometricPrecision; image-rendering:optimizeQuality; fill-rule:evenodd; clip-rule:evenodd"
viewBox="0 0 558.76 176.41"
 xmlns:xlink="http://www.w3.org/1999/xlink">
 <defs>
  <style type="text/css">
   <![CDATA[
    .fil0 {fill:#EDF0F2}
   ]]>
  </style>
 </defs>
 <g id="Слой_x0020_1">
  <metadata id="CorelCorpID_0Corel-Layer"/>
  <g id="_5466214064">
   <polygon class="fil0" points="170.84,166.98 220.22,7.18 257.93,7.18 290.24,92.47 323.91,8.53 358.47,8.53 419.97,165.63 373.73,165.63 336.03,76.29 298.77,166.08 280.82,166.08 245.36,76.31 212.14,167 "/>
   <polygon class="fil0" points="558.76,6.74 494.28,166.08 458.21,165.66 395.8,8.55 442.03,8.55 476.7,103.42 515.11,7.03 "/>
   <path class="fil0" d="M84.97 0c40.22,0 74.14,26.91 84.76,63.71l-41.12 11.34c-5.64,-18.75 -23.04,-32.41 -43.63,-32.41 -20.85,0 -38.42,14 -43.84,33.11l-41.12 -11.34c10.38,-37.16 44.48,-64.41 84.95,-64.41zm84.77 112.63c-10.59,36.83 -44.54,63.78 -84.77,63.78 -40.5,0 -74.62,-27.3 -84.97,-64.5l41.04 -11.62c5.3,19.29 22.96,33.47 43.93,33.47 20.72,0 38.2,-13.83 43.73,-32.75l41.04 11.62z"/>
   <polygon class="fil0" points="45.36,86.83 84.96,65.45 124.39,86.83 84.95,110.66 "/>
  </g>
 </g>
</svg>
